<svg xmlns="http://www.w3.org/2000/svg"  viewBox="0 0 30 30" width="30px" height="30px"><path fill="#dbb065" d="M1.5 26.5L1.5 3.5 9.793 3.5 12.793 6.5 26.5 6.5 26.5 26.5z"/><path fill="#967a44" d="M9.586,4l2.707,2.707L12.586,7H13h13v19H2V4H9.586 M10,3H1v24h26V6H13L10,3L10,3z"/><g><path fill="#f5ce85" d="M1.61 26.5L4.41 12.5 12.151 12.5 15.151 10.5 28.437 10.5 26.555 26.5z"/><path fill="#967a44" d="M27.875,11l-1.765,15H2.22l2.6-13H12h0.303l0.252-0.168L15.303,11H27.875 M29,10H15l-3,2H4L1,27h26 L29,10L29,10z"/></g></svg>